<?xml version="1.0" encoding="utf-8"?>
<!-- Generator: Adobe Illustrator 16.0.0, SVG Export Plug-In . SVG Version: 6.00 Build 0)  -->
<!DOCTYPE svg PUBLIC "-//W3C//DTD SVG 1.1//EN" "http://www.w3.org/Graphics/SVG/1.1/DTD/svg11.dtd">
<svg version="1.1" id="Layer_1" xmlns="http://www.w3.org/2000/svg" xmlns:xlink="http://www.w3.org/1999/xlink" x="0px" y="0px"
	 width="260px" height="100px" viewBox="0 0 260 100" enable-background="new 0 0 260 100" xml:space="preserve">
<circle fill="none" stroke="#225093" stroke-width="6" stroke-miterlimit="10" cx="76.068" cy="58.35" r="27.247"/>
<circle fill="none" stroke="#225093" stroke-width="6" stroke-miterlimit="10" cx="131.427" cy="59.215" r="27.247"/>
<circle fill="none" stroke="#225093" stroke-width="6" stroke-miterlimit="10" cx="186.786" cy="58.35" r="27.247"/>
<path fill="none" stroke="#225093" stroke-width="6" stroke-miterlimit="10" d="M48.931,61.229
	c-11.952,0.162-21.723-7.057-21.846-16.141"/>
<path fill="none" stroke="#225093" stroke-width="6" stroke-miterlimit="10" d="M238.239,31.09
	c0.016,15.06-10.806,27.257-24.193,27.271"/>
<g>
	<g>
		<path fill="#225093" d="M27.739,48.535c3.521-0.905,7.436-2.063,7.833-6.337c0.346-3.734-3.091-6.234-6.537-4.785
			c1.129,1.469,2.258,2.938,3.388,4.407c1.89-3.658,1.459-7.869-0.679-11.335c-2.16-3.502-6.386-5.112-10.028-2.845
			c-8.21,5.111-4.029,18.767,4.651,20.45c3.779,0.732,5.391-5.05,1.595-5.785c-3.814-0.739-6.257-5.842-3.55-9.107
			c1.02-1.231,1.603-0.574,2.448,0.796c0.851,1.379,1.141,3.332,0.383,4.799c-1.064,2.06,0.746,5.518,3.388,4.406
			c1.854-0.779-0.904-1.464-1.761-1.146c-0.871,0.325-1.825,0.465-2.724,0.696C22.399,43.713,23.989,49.5,27.739,48.535
			L27.739,48.535z"/>
	</g>
</g>
<g>
	<g>
		<path fill="#225093" d="M236.719,28.296c-1.276,0.229-2.856,0.545-3.886-0.469c-0.13-0.197-0.251-0.398-0.364-0.605
			c-0.343-0.909-0.854-0.327-1.532,1.747c2.299,0.499,4.184-1.396,3.69-3.69c-0.493-2.297-1.687-4.311-2.393-6.538
			c-1.042-3.282,3.223-1.232,4.103,0.013c2.247,3.181,0.564,8.371-1.189,11.366c-1.959,3.346,3.228,6.364,5.182,3.028
			c3.791-6.476,4.662-15.703-1.948-20.602c-3.094-2.292-7.828-2.233-10.504,0.568c-4.029,4.219,0.018,9.346,0.965,13.759
			c1.229-1.23,2.46-2.46,3.69-3.69c-4.106-0.891-7.358,1.929-5.638,6.153c1.983,4.868,6.727,5.586,11.42,4.748
			C242.119,33.402,240.502,27.62,236.719,28.296L236.719,28.296z"/>
	</g>
</g>
<g>
	<g>
		<path fill="none" stroke="#000000" stroke-width="3" stroke-miterlimit="10" d="M62.95,54.746"/>
	</g>
</g>
<path fill="none" stroke="#225093" stroke-width="3" stroke-miterlimit="10" d="M71.147,63.252c0,3.296,1.878,5.965,4.201,5.965
	l0.15,0.018c2.321-0.02,4.177-2.704,4.149-6.002"/>
<ellipse fill="#225093" stroke="#225093" stroke-width="3" stroke-miterlimit="10" cx="170.898" cy="57.328" rx="2.316" ry="2.469"/>
<ellipse fill="#225093" stroke="#225093" stroke-width="3" stroke-miterlimit="10" cx="203.768" cy="57.328" rx="2.316" ry="2.469"/>
<path fill="none" stroke="#225093" stroke-width="3" stroke-miterlimit="10" d="M198.442,61.188c0,0-10.25,11.852-22.212,0.008"/>
<ellipse fill="#225093" stroke="#225093" stroke-width="3" stroke-miterlimit="10" cx="61.046" cy="57.328" rx="2.316" ry="2.469"/>
<ellipse fill="#225093" stroke="#225093" stroke-width="3" stroke-miterlimit="10" cx="90.455" cy="57.328" rx="2.317" ry="2.469"/>
<rect x="115.468" y="63.963" fill="none" width="31.702" height="18.008"/>
<text transform="matrix(1 0 0 1 117.3545 79.457)"><tspan x="0" y="0" fill="#225093" stroke="#225093" stroke-width="0.3" stroke-miterlimit="10" font-family="'HoboStd'" font-size="10.8168"> eet”</tspan><tspan x="28.643" y="0" fill="#225093" stroke="#225093" stroke-width="0.3" stroke-miterlimit="10" font-family="'HoboStd'" font-size="18.1646" letter-spacing="1"> </tspan></text>
<text transform="matrix(1 0 0 1 116.1299 49.9707)" fill="#225093" stroke="#225093" stroke-width="0.3" stroke-miterlimit="10" font-family="'HoboStd'" font-size="9.4059">“Let’s</text>
<text transform="matrix(1 0 0 1 112.5679 66.582)" fill="#225093" stroke="#225093" stroke-miterlimit="10" font-family="'HoboStd'" font-size="15.5696" letter-spacing="1">SMU</text>
</svg>
